# xmcd
#
# Track frame offsets: 
#        150
#        15966
#        31389
#        46936
#        62532
#        78340
#        93233
#        107867
#        123583
#        139426
#        154659
#        170481
#        186110
#        201434
#        217171
#        232622
#        248621
#        264400
#        280163
#        295802
#        322864
#
# Disc length: 4375 seconds
#
# Revision: 4
# Processed by: cddbd v1.5.2PL0 Copyright (c) Steve Scherf et al.
# Submitted via: ExactAudioCopy v0.90b4
#
DISCID=20111515
DTITLE=Various Artist - SG01: Sounds Good
DYEAR=2003
DGENRE=Drum and Bass
TTITLE0=LTJ Bukem - Demon's Theme
TTITLE1=PHD and Funky Technicians - Above And Beyond
TTITLE2=Seba - Planetary Funk Alert
TTITLE3=Blu Mar Ten - Slipstream
TTITLE4=PFM and MC Conrad - W2BH Meets The Western
TTITLE5=LTJ Bukem - Music
TTITLE6=LTJ Bukem - Sunrain (Feat. Elliot)
TTITLE7=Nookie - My Lovin' Feat. Ebony Simone
TTITLE8=Future Engineers - Echo Location
TTITLE9=Nookie - Leviation
TTITLE10=Future Engineers - Timeshift
TTITLE11=Blu Mar Ten - She Moves Through
TTITLE12=Second Vision - Italian Job
TTITLE13=Seba and Lotek - Sonic Winds
TTITLE14=PFM - One And Only (Remix)
TTITLE15=Tayla - Language
TTITLE16=Nu Moon - Origins
TTITLE17=Blu Mar Ten - Adrift On Deep Water
TTITLE18=MC Conrad - Futures Call
TTITLE19=Tayla - Stargazing
TTITLE20=Data
EXTD=
EXTT0=
EXTT1=
EXTT2=
EXTT3=
EXTT4=
EXTT5=
EXTT6=
EXTT7=
EXTT8=
EXTT9=
EXTT10=
EXTT11=
EXTT12=
EXTT13=
EXTT14=
EXTT15=
EXTT16=
EXTT17=
EXTT18=
EXTT19=
EXTT20=
PLAYORDER=
